<svg width="20" height="20" viewBox="0 0 20 20" xmlns="http://www.w3.org/2000/svg" xmlns:sketch="http://www.bohemiancoding.com/sketch/ns"><title>kickoff</title><path d="M16 0h-12c-2.209 0-4 1.791-4 4v12c0 2.209 1.791 4 4 4h12c2.209 0 4-1.791 4-4v-12c0-2.209-1.791-4-4-4zm-7 5c0 .552-.448 1-1 1s-1-.448-1-1 .448-1 1-1 1 .448 1 1zm-3 0c0 .552-.448 1-1 1s-1-.448-1-1 .448-1 1-1 1 .448 1 1zm12 11c0 1.103-.897 2-2 2h-12c-1.103 0-2-.897-2-2v-8h16v8z" fill="#02B9E9" sketch:type="MSShapeGroup" fill-rule="evenodd"/></svg>