<svg width="20" height="20" viewBox="0 0 20 20" xmlns="http://www.w3.org/2000/svg"><title>subscribe</title><g fill="#02B9E9" fill-rule="evenodd"><path d="M4 20v-4h4l-4 4M16 2c1.103 0 2 .897 2 2v8c0 1.103-.897 2-2 2H4c-1.103 0-2-.897-2-2V4c0-1.103.897-2 2-2h12m0-2H4C1.79 0 0 1.79 0 4v8c0 2.21 1.79 4 4 4h12c2.21 0 4-1.79 4-4V4c0-2.21-1.79-4-4-4"/><path d="M7 8c0 .552-.448 1-1 1s-1-.448-1-1 .448-1 1-1 1 .448 1 1"/><path d="M11 8c0 .552-.448 1-1 1s-1-.448-1-1 .448-1 1-1 1 .448 1 1"/><path d="M15 8c0 .552-.447 1-1 1-.553 0-1-.448-1-1s.447-1 1-1c.553 0 1 .448 1 1"/></g></svg>