<svg width="20" height="20" viewBox="0 0 20 20" xmlns="http://www.w3.org/2000/svg" xmlns:sketch="http://www.bohemiancoding.com/sketch/ns"><title>subscribe</title><g sketch:type="MSLayerGroup" fill="#02B9E9" fill-rule="evenodd"><path d="M4 20v-4h4l-4 4m12-18c1.103 0 2 .897 2 2v8c0 1.103-.897 2-2 2h-12c-1.103 0-2-.897-2-2v-8c0-1.103.897-2 2-2h12m0-2h-12c-2.209 0-4 1.791-4 4v8c0 2.209 1.791 4 4 4h12c2.209 0 4-1.791 4-4v-8c0-2.209-1.791-4-4-4" sketch:type="MSShapeGroup"/><path d="M7 8c0 .552-.448 1-1 1s-1-.448-1-1 .448-1 1-1 1 .448 1 1" sketch:type="MSShapeGroup"/><path d="M11 8c0 .552-.448 1-1 1s-1-.448-1-1 .448-1 1-1 1 .448 1 1" sketch:type="MSShapeGroup"/><path d="M15 8c0 .552-.447 1-1 1-.553 0-1-.448-1-1s.447-1 1-1c.553 0 1 .448 1 1" sketch:type="MSShapeGroup"/></g></svg>