<svg xmlns="http://www.w3.org/2000/svg" width="30" height="19.229" viewBox="0 0 30 19.229"><path fill="#02B9E9" d="M19.93 7.58s-.184.572-.212.65c-.03.077-.206.314-.168.314.036 0 .43.18.43.18l1.52.473-.023.716c-.136.018-.66.365-.735.536-.048.112-.162.31-.267.45 1.383.558 2.19 1.375 2.226 2.29.02.157.862 3.153.91 3.83H30c.004-.03-.193-3.9-.195-3.93 0 0-.367-.933-.947-1.03-.583-.094-1.33-.295-1.64-.53-.185-.142-.78-.382-1.055-.48-.13-.048-.35-.428-.428-.6-.073-.17-.598-.517-.732-.536l-.023-.718 1.515-.473s.396-.18.433-.18c.036 0-.18-.29-.208-.365-.03-.075-.173-.598-.173-.598s.513.628.77.745c0 0-.508-.958-.658-1.493-.155-.533-.255-1.367-.255-1.443 0-.078-.317-2.317-.486-2.69-.172-.37-.405-.876-.805-1.125-.398-.246-.99-.6-1.84-.646-.01-.002-.02-.002-.035-.002h-.038c-.85.047-1.44.4-1.838.647-.397.25-.632.755-.803 1.126-.17.373-.485 2.613-.485 2.69 0 .075-.09.944-.242 1.477-.153.533-.675 1.458-.675 1.458.26-.118.773-.746.773-.746zM6.72 13.78v-.04l.003-.037c.413-1.78 2.563-2.635 3.737-3.145.002-.002 0 0 0 0-.713-.327-1.088-.568-1.265-.608-.07-.145-.226-1.234-.226-1.234s.855-.757 1.048-2.207c0 0 .422.232.447-.65.02-.678.138-.943-.324-1.142 0 0 .032-.47.047-.888.025-.618.14-1.486-.932-2.184-.152-.102-.937-.537-.943-.534-.28-.17-.633-.278-.633-.278l.01.255-.057-.058C7.563.958 7.52.68 7.53.567L7.542.37c-.506.378-.857.867-.857.867L6.73.764s-.092.145-1.252.87c-1.138.71-.95 1.756-.918 2.38.02.416.063.704.063.704-.462.197-.222.48-.21 1.16.016.938.49.774.49.774.217 1.28.89 2.062.89 2.062s-.19 1.098-.264 1.236c-.21.046-.693.38-1.71.805-1.497.623-1.027.26-2.246.87C-.352 12.586.03 16.6.03 16.6H6.1l.62-2.82zM23.256 19.227c0-1.143-1.294-5.982-1.294-5.982 0-.707-.932-1.514-2.766-1.986-.952-.243-1.75-.792-1.75-.792-.118-.067-.1-.684-.1-.684l-.592-.09c0-.05-.05-.79-.05-.79.706-.236.632-1.628.632-1.628.45.245.742-.854.742-.854.53-1.528-.264-1.436-.264-1.436.252-1.145 0-2.817 0-2.817C17.46-.93 12.137-.09 12.77.922c-1.56-.286-1.202 3.23-1.202 3.23l.338.91c-.664.427-.202.944-.182 1.538.034.878.573.697.573.697.033 1.45.752 1.64.752 1.64.134.908.05.752.05.752l-.64.077c.028.228-.05.616-.05.616-.754.332-.915.527-1.663.852-1.444.63-3.014 1.45-3.293 2.547-.28 1.1-1.107 5.445-1.107 5.445H23.256z"/></svg>