<svg width="25" height="21" viewBox="0 0 25 21" xmlns="http://www.w3.org/2000/svg"><title>twitter</title><path d="M0 18.635c.4.05.81.074 1.223.074 2.403 0 4.615-.85 6.37-2.272-2.244-.044-4.138-1.577-4.79-3.686.312.063.633.095.964.095.468 0 .92-.064 1.35-.186-2.345-.486-4.113-2.63-4.113-5.202v-.066c.692.397 1.482.636 2.324.663C1.95 7.105 1.046 5.48 1.046 3.64c0-.974.253-1.885.694-2.67 2.53 3.21 6.31 5.324 10.572 5.545-.087-.388-.132-.793-.132-1.21C12.18 2.376 14.476 0 17.31 0c1.474 0 2.807.644 3.743 1.676 1.17-.24 2.266-.68 3.257-1.288-.383 1.24-1.197 2.28-2.255 2.936 1.037-.128 2.026-.414 2.945-.836-.687 1.064-1.557 2-2.56 2.747.01.227.016.456.016.686 0 6.818-4.876 14.648-13.813 15.08h-1.51c-2.62-.134-5.055-.987-7.133-2.365z" fill="#02B9E9" fill-rule="evenodd"/></svg>