<svg width="20" height="20" viewBox="0 0 20 20" xmlns="http://www.w3.org/2000/svg" xmlns:xlink="http://www.w3.org/1999/xlink" xmlns:sketch="http://www.bohemiancoding.com/sketch/ns"><title>github</title><defs><path id="a" d="M0 9.301c.433-5.211 4.672-9.301 9.835-9.301 5.453 0 9.873 4.558 9.873 10.181 0 4.497-2.826 8.31-6.746 9.659-.501.099-.679-.217-.679-.49 0-.334.012-1.432.012-2.793 0-.95-.316-1.571-.67-1.886 2.199-.252 4.507-1.112 4.507-5.024 0-1.111-.382-2.021-1.015-2.732.101-.258.44-1.293-.099-2.694 0 0-.828-.274-2.712 1.044-.788-.226-1.633-.339-2.472-.343-.839.004-1.684.117-2.472.343-1.886-1.318-2.715-1.044-2.715-1.044-.538 1.401-.199 2.437-.097 2.694-.632.711-1.016 1.621-1.016 2.732 0 3.901 2.305 4.775 4.497 5.032-.282.255-.537.703-.627 1.361-.562.261-1.993.71-2.873-.845 0 0-.521-.978-1.512-1.05 0 0-.964-.013-.068.619 0 0 .647.313 1.096 1.489 0 0 .579 1.98 3.325 1.365l.013 1.731c0 .27-.18.585-.674.491-3.664-1.258-6.374-4.67-6.715-8.78v-1.76z"/></defs><g fill="none" fill-rule="evenodd" sketch:type="MSPage"><mask sketch:name="github"><use xlink:href="#a"/></mask><use fill="#02B9E9" sketch:type="MSShapeGroup" xlink:href="#a"/></g></svg>