<svg width="20" height="20" viewBox="0 0 20 20" xmlns="http://www.w3.org/2000/svg" xmlns:xlink="http://www.w3.org/1999/xlink"><title>github</title><defs><path id="a" d="M0 9.3C.433 4.09 4.672 0 9.835 0c5.453 0 9.873 4.558 9.873 10.18 0 4.498-2.826 8.31-6.746 9.66-.5.1-.678-.217-.678-.49 0-.333.012-1.43.012-2.792 0-.95-.316-1.57-.67-1.886 2.2-.25 4.507-1.112 4.507-5.023 0-1.113-.38-2.022-1.014-2.733.1-.258.44-1.293-.1-2.694 0 0-.828-.274-2.712 1.043-.79-.226-1.633-.338-2.472-.343-.84.005-1.684.117-2.47.343C5.478 3.95 4.65 4.223 4.65 4.223c-.537 1.4-.198 2.436-.097 2.694-.63.71-1.016 1.62-1.016 2.732 0 3.9 2.305 4.774 4.497 5.03-.282.256-.537.704-.627 1.36-.562.262-1.992.71-2.873-.844 0 0-.52-.978-1.512-1.05 0 0-.964-.012-.068.62 0 0 .647.312 1.096 1.488 0 0 .58 1.98 3.326 1.365.005.85.013 1.49.013 1.73 0 .27-.18.586-.675.49C3.05 18.585.34 15.173 0 11.06V9.3z"/></defs><g fill="none" fill-rule="evenodd"><mask><use xlink:href="#a"/></mask><use fill="#02B9E9" xlink:href="#a"/></g></svg>