<svg version="1" xmlns="http://www.w3.org/2000/svg" viewBox="0 0 209 60" enable-background="new 0 0 209 60"><path fill="#221F1F" d="M165.7 19.5h13.8l28.6 39.2h-13.8l-28.6-39.2zM16.6 60C11.2 60 4.1 58.7 0 56.5l2.5-9.4c4.6 2.4 9.8 3.7 14.3 3.7 3.5 0 5.3-1.2 5.3-3.2 0-2.2-2.2-3-6.7-4.1-9-1.6-14.8-5-14.8-12.7 0-7.3 6.4-12.6 17.3-12.6 5.2 0 12.1 1.5 15.9 3.4l-2.6 9.3c-4.5-2.2-9.8-3.5-13.5-3.5-3.1 0-4.8 1-4.8 3 0 2.1 2.4 3 6.8 3.9 9.3 2 14.8 5.1 14.8 12.9-.1 7-6.3 12.8-17.9 12.8zM57.2 60c-9.7 0-14.9-4-14.4-14.3l.6-14.9-5.9-1 .3-8.3 5.9-1.9.2-8.9h12.6l-.2 9.3h9.8l-.3 10.2H55.4L55 44.3c-.2 3.6 1.9 5.1 5.1 5.1 1.6 0 3.4-.4 5.1-1l1.5 10.1c-3 1-5.5 1.5-9.5 1.5zM94.4 54c-2.8 3.3-5.9 6-11.3 6-6.8 0-12-4.8-12-10.9 0-7.4 5.6-13.4 23.2-13.9v-.8c0-4.1-2.1-6-6.9-6-4.1 0-8.8 1.7-13.3 4l-2.7-9.5c4.1-2.2 10.6-4.6 18.1-4.6 13.6 0 18.1 6.2 17.9 17.1l-.2 11.6c0 2.7.5 3 3.2 3.2l-1.3 9.3c-8.5 1.1-12.7-1.2-14.5-5.5h-.2zm-.1-12.7c-8 .9-11 2.4-11 5.9 0 2.5 2 4.2 4.9 4.2 2.6 0 4.7-1.1 6.1-2.6v-7.5zM132.1 60c-9.7 0-14.9-4-14.4-14.3l.6-14.9-5.9-1 .3-8.3 5.9-1.9.2-8.9h12.6l-.1 9.4h9.8l-.3 10.2h-10.5l-.4 14.1c-.2 3.6 1.9 5.1 5.1 5.1 1.6 0 3.4-.4 5.1-1l1.5 10.1c-3 .9-5.5 1.4-9.5 1.4zM154.7 13.9c-4.7 0-7.7-2.4-7.7-6.9 0-4.6 3-7 7.7-7 4.8 0 7.7 2.4 7.7 7-.1 4.5-2.9 6.9-7.7 6.9zM148.2 58.7V20.2l13-1.6v40.1zM204.1 21.5L195 34l-4.4-6 4.7-6.5h8.8m-25.3 22.7l4.4 6-4.7 6.5h-8.8l9.1-12.5m29.3-24.7h-13.8l-6.2 8.5 6.9 9.4 13.1-17.9zm-29.3 21.3l-13.1 17.9h13.8l6.2-8.5-6.9-9.4z"/></svg>