<svg xmlns="http://www.w3.org/2000/svg" width="30" height="19.229" viewBox="0 0 30 19.229"><path fill="#02B9E9" d="M19.931 7.579l-.213.651c-.029.077-.206.314-.168.314.036 0 .429.18.429.18l1.52.473-.022.716c-.136.018-.659.365-.735.536-.048.113-.162.312-.267.451 1.383.558 2.191 1.375 2.226 2.289.019.158.861 3.154.909 3.83h6.39c.004-.029-.193-3.9-.195-3.93 0 0-.367-.932-.947-1.029-.583-.094-1.33-.295-1.641-.531-.184-.141-.779-.381-1.054-.48-.13-.047-.349-.427-.428-.599-.073-.171-.598-.517-.732-.536l-.023-.718 1.515-.473s.396-.18.433-.18l-.208-.365-.173-.598s.513.628.771.745c0 0-.509-.958-.659-1.493-.154-.533-.254-1.367-.254-1.443 0-.077-.317-2.316-.486-2.688-.171-.371-.404-.877-.804-1.126-.398-.246-.991-.601-1.84-.646l-.035-.001-.038.001c-.85.046-1.439.4-1.838.646-.397.249-.632.755-.803 1.126-.172.372-.486 2.612-.486 2.688 0 .076-.09.945-.242 1.478-.153.533-.675 1.458-.675 1.458.261-.118.773-.746.773-.746zM6.719 13.781v-.041l.004-.037c.413-1.781 2.563-2.635 3.737-3.145-.713-.327-1.088-.568-1.265-.608-.071-.145-.226-1.234-.226-1.234s.856-.757 1.049-2.207c0 0 .422.233.447-.648.021-.679.138-.944-.324-1.143 0 0 .031-.47.046-.888.025-.618.139-1.486-.932-2.184-.152-.102-.937-.537-.943-.534-.279-.17-.633-.278-.633-.278l.011.255-.057-.057c-.071-.074-.112-.353-.104-.465l.014-.197c-.506.378-.857.867-.857.867l.044-.473s-.092.145-1.252.869c-1.138.711-.949 1.757-.918 2.38.021.417.063.705.063.705-.462.197-.222.481-.209 1.16.015.938.488.774.488.774.218 1.281.89 2.062.89 2.062s-.19 1.098-.263 1.236c-.208.046-.692.381-1.709.805-1.497.623-1.027.261-2.246.871-1.926.96-1.543 4.974-1.543 4.974h6.067l.621-2.819zM23.256 19.227c0-1.143-1.294-5.982-1.294-5.982 0-.707-.932-1.514-2.766-1.986-.952-.242-1.751-.791-1.751-.791-.117-.067-.1-.684-.1-.684l-.591-.089-.051-.792c.707-.235.633-1.627.633-1.627.451.245.742-.854.742-.854.531-1.528-.264-1.436-.264-1.436.252-1.145 0-2.817 0-2.817-.354-3.097-5.677-2.258-5.045-1.246-1.558-.286-1.201 3.231-1.201 3.231l.338.91c-.664.426-.202.943-.182 1.537.034.877.573.696.573.696.033 1.449.752 1.639.752 1.639.135.909.051.753.051.753l-.64.078c.028.228-.051.616-.051.616l-1.662.852c-1.444.631-3.014 1.449-3.293 2.547-.279 1.1-1.107 5.445-1.107 5.445h16.909000000000002z"/></svg>