<svg width="25" height="21" viewBox="0 0 25 21" xmlns="http://www.w3.org/2000/svg" xmlns:sketch="http://www.bohemiancoding.com/sketch/ns"><title>twitter</title><path d="M0 18.635c.401.049.81.074 1.223.074 2.403 0 4.615-.849 6.371-2.271-2.244-.044-4.139-1.577-4.791-3.686.313.062.634.095.965.095.468 0 .921-.065 1.351-.186-2.347-.487-4.115-2.632-4.115-5.203l.001-.067c.692.397 1.482.636 2.323.664-1.377-.952-2.282-2.576-2.282-4.416 0-.973.253-1.884.694-2.668 2.53 3.21 6.31 5.322 10.572 5.544-.087-.389-.132-.793-.132-1.209 0-2.93 2.296-5.306 5.129-5.306 1.475 0 2.808.644 3.744 1.676 1.168-.238 2.266-.68 3.257-1.287-.383 1.239-1.197 2.279-2.255 2.935 1.037-.128 2.025-.414 2.945-.835-.687 1.064-1.557 1.998-2.559 2.747l.015.686c0 6.816-4.875 14.647-13.813 15.079h-1.51c-2.62-.134-5.054-.987-7.132-2.365z" fill="#02B9E9" sketch:type="MSShapeGroup" fill-rule="evenodd"/></svg>