<?xml version="1.0" encoding="UTF-8" standalone="no"?>
<svg width="20px" height="20px" viewBox="0 0 20 20" version="1.1" xmlns="http://www.w3.org/2000/svg" xmlns:xlink="http://www.w3.org/1999/xlink" xmlns:sketch="http://www.bohemiancoding.com/sketch/ns">
    <!-- Generator: Sketch 3.0.2 (7799) - http://www.bohemiancoding.com/sketch -->
    <title>github</title>
    <description>Created with Sketch.</description>
    <defs>
        <path id="path-1" d="M1.23911571e-11,9.30128206 C0.432612222,4.09018174 4.6716165,0 9.83515152,0 C15.2878788,0 19.7084848,4.558125 19.7084848,10.18125 C19.7084848,14.678125 16.8824242,18.49125 12.9624242,19.840625 C12.4618182,19.94 12.2836364,19.623125 12.2836364,19.350625 C12.2836364,19.016875 12.2957576,17.91875 12.2957576,16.558125 C12.2957576,15.608125 11.98,14.986875 11.6260606,14.6725 C13.8248485,14.420625 16.1333333,13.56 16.1333333,9.64875 C16.1333333,8.5375 15.7515152,7.628125 15.1187879,6.916875 C15.22,6.659375 15.5587879,5.62375 15.02,4.2225 C15.02,4.2225 14.1921212,3.94875 12.3078788,5.26625 C11.5193939,5.04 10.6751515,4.9275 9.83636364,4.923125 C8.9969697,4.9275 8.15212121,5.04 7.36484848,5.26625 C5.47878788,3.94875 4.65030303,4.2225 4.65030303,4.2225 C4.11272727,5.62375 4.45151515,6.659375 4.55333333,6.916875 C3.92181818,7.628125 3.5369697,8.5375 3.5369697,9.64875 C3.5369697,13.55 5.84181818,14.42375 8.03393939,14.680625 C7.75212121,14.935625 7.4969697,15.38375 7.40727273,16.04125 C6.84484848,16.301875 5.41454545,16.75125 4.53393939,15.19625 C4.53393939,15.19625 4.01272727,14.218125 3.02181818,14.14625 C3.02181818,14.14625 2.05757576,14.13375 2.95393939,14.765 C2.95393939,14.765 3.60121212,15.078125 4.05030303,16.254375 C4.05030303,16.254375 4.62969697,18.234375 7.37575758,17.619375 C7.38060606,18.46875 7.38909091,19.109375 7.38909091,19.350625 C7.38909091,19.620625 7.20909091,19.935625 6.71515152,19.84125 C3.05068169,18.5837291 0.341232548,15.1716114 0,11.0612363 L1.24028397e-11,9.30128206 L1.23911571e-11,9.30128206 Z"></path>
    </defs>
    <g id="Page-1" stroke="none" stroke-width="1" fill="none" fill-rule="evenodd" sketch:type="MSPage">
        <mask id="mask-2" sketch:name="github" fill="white">
            <use xlink:href="#path-1"></use>
        </mask>
        <use id="github" fill="#02B9E9" sketch:type="MSShapeGroup" xlink:href="#path-1"></use>
    </g>
</svg>