<?xml version="1.0" encoding="UTF-8" standalone="no"?>
<svg width="20px" height="20px" viewBox="0 0 20 20" version="1.1" xmlns="http://www.w3.org/2000/svg" xmlns:xlink="http://www.w3.org/1999/xlink" xmlns:sketch="http://www.bohemiancoding.com/sketch/ns">
    <!-- Generator: Sketch 3.0.2 (7799) - http://www.bohemiancoding.com/sketch -->
    <title>kickoff</title>
    <description>Created with Sketch.</description>
    <defs></defs>
    <g id="Page-1" stroke="none" stroke-width="1" fill="none" fill-rule="evenodd" sketch:type="MSPage">
        <path d="M16,0 L4,0 C1.791,0 0,1.791 0,4 L0,16 C0,18.209 1.791,20 4,20 L16,20 C18.209,20 20,18.209 20,16 L20,4 C20,1.791 18.209,0 16,0 L16,0 Z M9,5 C9,5.552 8.552,6 8,6 C7.448,6 7,5.552 7,5 C7,4.448 7.448,4 8,4 C8.552,4 9,4.448 9,5 L9,5 Z M6,5 C6,5.552 5.552,6 5,6 C4.448,6 4,5.552 4,5 C4,4.448 4.448,4 5,4 C5.552,4 6,4.448 6,5 L6,5 Z M18,16 C18,17.103 17.103,18 16,18 L4,18 C2.897,18 2,17.103 2,16 L2,8 L18,8 L18,16 L18,16 Z" id="kickoff" fill="#02B9E9" sketch:type="MSShapeGroup"></path>
    </g>
</svg>