<?xml version="1.0" encoding="UTF-8" standalone="no"?>
<svg width="20px" height="20px" viewBox="0 0 20 20" version="1.1" xmlns="http://www.w3.org/2000/svg" xmlns:xlink="http://www.w3.org/1999/xlink" xmlns:sketch="http://www.bohemiancoding.com/sketch/ns">
    <!-- Generator: Sketch 3.0.2 (7799) - http://www.bohemiancoding.com/sketch -->
    <title>subscribe</title>
    <description>Created with Sketch.</description>
    <defs></defs>
    <g id="Page-1" stroke="none" stroke-width="1" fill="none" fill-rule="evenodd" sketch:type="MSPage">
        <g id="subscribe" sketch:type="MSLayerGroup" fill="#02B9E9">
            <path d="M4,20 L4,16 L8,16 L4,20 M16,2 C17.103,2 18,2.897 18,4 L18,12 C18,13.103 17.103,14 16,14 L4,14 C2.897,14 2,13.103 2,12 L2,4 C2,2.897 2.897,2 4,2 L16,2 M16,0 L4,0 C1.791,0 0,1.791 0,4 L0,12 C0,14.209 1.791,16 4,16 L16,16 C18.209,16 20,14.209 20,12 L20,4 C20,1.791 18.209,0 16,0" id="Fill-2" sketch:type="MSShapeGroup"></path>
            <path d="M7,8 C7,8.552 6.552,9 6,9 C5.448,9 5,8.552 5,8 C5,7.448 5.448,7 6,7 C6.552,7 7,7.448 7,8" id="Fill-3" sketch:type="MSShapeGroup"></path>
            <path d="M11,8 C11,8.552 10.552,9 10,9 C9.448,9 9,8.552 9,8 C9,7.448 9.448,7 10,7 C10.552,7 11,7.448 11,8" id="Fill-4" sketch:type="MSShapeGroup"></path>
            <path d="M15,8 C15,8.552 14.553,9 14,9 C13.447,9 13,8.552 13,8 C13,7.448 13.447,7 14,7 C14.553,7 15,7.448 15,8" id="Fill-5" sketch:type="MSShapeGroup"></path>
        </g>
    </g>
</svg>