<?xml version="1.0" encoding="utf-8"?>
<!-- Generator: Adobe Illustrator 16.0.4, SVG Export Plug-In . SVG Version: 6.00 Build 0)  -->
<!DOCTYPE svg PUBLIC "-//W3C//DTD SVG 1.1//EN" "http://www.w3.org/Graphics/SVG/1.1/DTD/svg11.dtd">
<svg version="1.1" id="Layer_1" xmlns="http://www.w3.org/2000/svg" xmlns:xlink="http://www.w3.org/1999/xlink" x="0px" y="0px"
	 width="30px" height="19.229px" viewBox="0 0 30 19.229" enable-background="new 0 0 30 19.229" xml:space="preserve">
<g>
	<path fill="#02B9E9" d="M19.931,7.579c0,0-0.185,0.573-0.213,0.651c-0.029,0.077-0.206,0.314-0.168,0.314
		c0.036,0,0.429,0.18,0.429,0.18l1.52,0.473l-0.022,0.716c-0.136,0.018-0.659,0.365-0.735,0.536
		c-0.048,0.113-0.162,0.312-0.267,0.451c1.383,0.558,2.191,1.375,2.226,2.289c0.019,0.158,0.861,3.154,0.909,3.83h6.39
		c0.004-0.029-0.193-3.9-0.195-3.93c0,0-0.367-0.932-0.947-1.029c-0.583-0.094-1.33-0.295-1.641-0.531
		c-0.184-0.141-0.779-0.381-1.054-0.48c-0.13-0.047-0.349-0.427-0.428-0.599c-0.073-0.171-0.598-0.517-0.732-0.536L24.98,9.196
		l1.515-0.473c0,0,0.396-0.18,0.433-0.18c0.036,0-0.181-0.289-0.208-0.365C26.69,8.103,26.547,7.58,26.547,7.58
		s0.513,0.628,0.771,0.745c0,0-0.509-0.958-0.659-1.493c-0.154-0.533-0.254-1.367-0.254-1.443c0-0.077-0.317-2.316-0.486-2.688
		c-0.171-0.371-0.404-0.877-0.804-1.126c-0.398-0.246-0.991-0.601-1.84-0.646c-0.01-0.001-0.021-0.001-0.035-0.001
		c-0.013,0-0.026,0-0.038,0.001c-0.85,0.046-1.439,0.4-1.838,0.646c-0.397,0.249-0.632,0.755-0.803,1.126
		c-0.172,0.372-0.486,2.612-0.486,2.688c0,0.076-0.09,0.945-0.242,1.478C19.68,7.4,19.158,8.325,19.158,8.325
		C19.419,8.207,19.931,7.579,19.931,7.579z"/>
</g>
<g>
	<path fill="#02B9E9" d="M6.719,13.781V13.74l0.004-0.037c0.413-1.781,2.563-2.635,3.737-3.145c0.002-0.002-0.001,0,0,0
		C9.747,10.231,9.372,9.99,9.195,9.95C9.124,9.805,8.969,8.716,8.969,8.716s0.856-0.757,1.049-2.207c0,0,0.422,0.233,0.447-0.648
		c0.021-0.679,0.138-0.944-0.324-1.143c0,0,0.031-0.47,0.046-0.888c0.025-0.618,0.139-1.486-0.932-2.184
		C9.103,1.544,8.318,1.109,8.312,1.112c-0.279-0.17-0.633-0.278-0.633-0.278l0.011,0.255C7.67,1.07,7.651,1.05,7.633,1.032
		C7.562,0.958,7.521,0.679,7.529,0.567C7.543,0.37,7.543,0.37,7.543,0.37C7.037,0.748,6.686,1.237,6.686,1.237L6.73,0.764
		c0,0-0.092,0.145-1.252,0.869C4.34,2.344,4.529,3.39,4.56,4.013c0.021,0.417,0.063,0.705,0.063,0.705
		C4.161,4.915,4.401,5.199,4.414,5.878c0.015,0.938,0.488,0.774,0.488,0.774c0.218,1.281,0.89,2.062,0.89,2.062
		S5.602,9.812,5.529,9.95c-0.208,0.046-0.692,0.381-1.709,0.805c-1.497,0.623-1.027,0.261-2.246,0.871
		C-0.352,12.586,0.031,16.6,0.031,16.6h6.067L6.719,13.781z"/>
</g>
<g>
	<path fill="#02B9E9" d="M23.256,19.227c0-1.143-1.294-5.982-1.294-5.982c0-0.707-0.932-1.514-2.766-1.986
		c-0.952-0.242-1.751-0.791-1.751-0.791c-0.117-0.067-0.1-0.684-0.1-0.684l-0.591-0.089c0-0.051-0.051-0.792-0.051-0.792
		c0.707-0.235,0.633-1.627,0.633-1.627c0.451,0.245,0.742-0.854,0.742-0.854c0.531-1.528-0.264-1.436-0.264-1.436
		c0.252-1.145,0-2.817,0-2.817c-0.354-3.097-5.677-2.258-5.045-1.246c-1.558-0.286-1.201,3.231-1.201,3.231l0.338,0.91
		c-0.664,0.426-0.202,0.943-0.182,1.537c0.034,0.877,0.573,0.696,0.573,0.696c0.033,1.449,0.752,1.639,0.752,1.639
		c0.135,0.909,0.051,0.753,0.051,0.753l-0.64,0.078c0.028,0.228-0.051,0.616-0.051,0.616c-0.753,0.332-0.914,0.527-1.662,0.852
		c-1.444,0.631-3.014,1.449-3.293,2.547c-0.279,1.1-1.107,5.445-1.107,5.445h16.905l0,0H23.256z"/>
</g>
</svg>
