<?xml version="1.0" encoding="UTF-8" standalone="no"?>
<svg width="25px" height="21px" viewBox="0 0 25 21" version="1.1" xmlns="http://www.w3.org/2000/svg" xmlns:xlink="http://www.w3.org/1999/xlink" xmlns:sketch="http://www.bohemiancoding.com/sketch/ns">
    <!-- Generator: Sketch 3.0.2 (7799) - http://www.bohemiancoding.com/sketch -->
    <title>twitter</title>
    <description>Created with Sketch.</description>
    <defs></defs>
    <g id="Page-1" stroke="none" stroke-width="1" fill="none" fill-rule="evenodd" sketch:type="MSPage">
        <path d="M0,18.634872 C0.40083203,18.6843158 0.809635152,18.7092324 1.22299318,18.7092324 C3.62646706,18.7092324 5.83825517,17.8605116 7.59379318,16.437931 C5.34936155,16.394327 3.45451923,14.8607897 2.80240803,12.7522247 C3.11517848,12.8145161 3.43592002,12.8472191 3.7669101,12.8472191 C4.23530662,12.8472191 4.68814053,12.7825917 5.1181999,12.6611234 C2.77166239,12.173693 1.00359838,10.0293103 1.00359838,7.45823134 C1.00359838,7.4356507 1.00359838,7.4138487 1.00435753,7.39165737 C1.69594461,7.78915459 2.4862214,8.02780865 3.32774092,8.05545048 C1.95101954,7.10394881 1.04611087,5.47969965 1.04611087,3.63898775 C1.04611087,2.66646273 1.29890834,1.75506117 1.7399754,0.97135706 C4.27022759,4.18131256 8.0496637,6.29377084 12.3122998,6.51529475 C12.2249973,6.12675193 12.1798278,5.7218576 12.1798278,5.30606227 C12.1798278,2.37563959 14.4755022,0 17.3090354,0 C18.7844465,0 20.1167575,0.644327028 21.053171,1.67563959 C22.2215052,1.43737486 23.3192384,0.995884313 24.3099312,0.388153503 C23.9265597,1.62697441 23.1131288,2.66685205 22.0552511,3.32363736 C23.0918725,3.1955506 24.0806674,2.90978864 25,2.4881535 C24.3125883,3.55216907 23.4429801,4.48654059 22.4409001,5.23520577 C22.4503894,5.46218018 22.4557035,5.69149053 22.4557035,5.92119019 C22.4557035,12.7375964 17.5804137,20.5682963 8.64260576,21 L7.13241347,20.9999999 C4.51276912,20.8656694 2.07793134,20.0130777 0,18.634872 Z" id="twitter" fill="#02B9E9" sketch:type="MSShapeGroup"></path>
    </g>
</svg>